<svg xmlns="http://www.w3.org/2000/svg" width="600" height="678.6" viewBox="0 0 600 678.6"><path d="M386.8 310.7c-5.4 1.5-10.4 3.1-15 4.9-9.4 12.9-23.1 27.2-42.9 42-.6 8.7 2.6 17.7 8.9 26.3 1.6 2.1 3.4 4.2 5.4 6.2 8.7-8.2 17.4-17.7 25.6-27.9 13.6-16.9 26.2-36 36.5-55-1.2.1-2.4.2-3.6.4-4.7.6-9.7 1.6-14.9 3.1zm-277.2 23.5c.6-.1 1.1-.3 1.7-.4 2.7-.7 5.5-1.7 8.6-3 .6-.2 1.1-.5 1.7-.8 8.6-3.9 18.8-10.1 30.9-19.9 59.1-47.5 84.5-44.2 111.3-44.6 26.5-.4 9.1 63.2 8.7 64.8 1-1.1 35.4-37.2 32.2-66.8-1.7-15.1-15.6-19.7-29.1-20.6-13.6-.9-27.1 2.3-39.2 8.6L160.5 291c-9.3 4.8-19 8.7-29 11.4-3.3.9-6.7 1.7-10 2.4-.6.1-1.1.2-1.7.3-2.8.6-5.7 1-8.6 1.4-.6.1-1.1.2-1.7.2-2.9.4-5.8.6-8.7.8-12.9.8-25.5 4.3-37.1 10.1L.1 350.1c2.2-.8 38.1-13.4 59.3-20.2 15.2-4.8 25.6 10.3 50.2 4.3zm149.6 13.6l102.1-70.4c8.7-6 16.8-12.6 24.4-20l40.5-39.3c-2 1.3-33.6 21.7-51.8 36.1-18.7 14.9-61.3 8-67.7 33.8-6.2 25.6-46.3 58.8-47.5 59.8zm172.7-127.3l-39.6 39.1s1.8 13.6-7.7 34.3c3.5-.7 7-1.1 10.4-1.3 5.8-.3 11.1-.3 16.1 0 2.2-3.6 4.5-7.4 6.8-11.3 10-23.3 15.5-44.9 14-60.8zM121.5 391h1c19.6 0 39-16.3 45.7-22.7 2.3-2.2 4.7-4.2 7.1-6.1l43.8-34.5c-37 28.4-77.4 40.4-97.7 43.9-.6.1-1.2.2-1.7.3-3.3.5-6 .8-8 .9h-.6c-.6 0-1.2 0-1.7-.1-12.4-1-18-12.9-39.8-16.4-23-3.7-69.6 24.4-69.6 24.4s38-7.4 53.2-10.3c12.6-2.4 35.2 13.3 56.3 18.8.6.1 1.1.3 1.7.4 2.9.7 5.8 1.2 8.6 1.3.6.1 1.2.1 1.7.1zm156.1 3.9c-44.2 38.3-88.6 95.2-119.7 138.8-.2.3-.5.7-.7 1-2.1 2.9-4.1 5.8-6.1 8.6-.6.8-1.1 1.6-1.7 2.4-20 28.6-32.8 49.2-33.9 51 1.6-1.9 19.7-23.3 44.9-51 .7-.8 1.4-1.6 2.2-2.4 2.6-2.8 5.2-5.7 7.9-8.6.3-.3.6-.7 1-1 37.7-40.6 86.5-89.6 120.5-110.2-9.9-7.9-14.3-17.8-14.4-28.6z" fill="#569fff"/><path d="M595.3 337.2c-4.2 6.8-13 15.3-30.3 25.8-6 3.6-13.1 7.8-21.1 12.3-.6.4-1.3.7-1.9 1.1-2.8 1.6-5.6 3.1-8.6 4.7-.5.3-1 .6-1.5.8-62.6 33.8-164.8 78-227.2 49.3-5-2.3-9.2-4.9-12.7-7.7-10-8-14.3-17.8-14.4-28.6-.4-40 58.4-91.9 107-101.1 3.5-.7 7-1.1 10.4-1.3 5.8-.3 11.1-.3 16.1 0 .6 0 1.1.1 1.6.1 8 .6 15 1.9 21.1 3.7 32.9 9.7 40.6 33.8 40.9 34.7-.8-.9-16-18.1-44.3-23.1-7.5-1.3-15.8-1.7-25.1-.8-1.2.1-2.4.2-3.6.4-4.8.7-9.8 1.7-15 3.1-5.4 1.5-10.4 3.1-15 4.9-28.5 10.8-41.9 26-42.9 42-.6 8.7 2.6 17.7 8.9 26.3 1.6 2.1 3.4 4.2 5.4 6.2 23.9 23.2 79.2 35.4 136.2 6.5 25.6-12.9 43.1-26.4 52.4-37.3.6-.6 1-1.2 1.5-1.8 8.8-11 8.8-19.2 0-21.4l-1.5-.3c-2.6-.4-5.9-.3-9.8.2-34.1 4.9-90 14.2-90 14.2s31.6-17.9 99.8-27.5c.5-.1 1-.1 1.5-.2 2.8-.4 5.6-.8 8.6-1.1.6-.1 1.3-.1 1.9-.2 12.1-1.4 25.3-2.6 39.5-3.4 10.5-.5 17.5 10.7 12.1 19.5z" fill="#ea6900"/><path d="M420.4 339.3c3.3-4.6 5.7-15.9 10.1-31.3-7.5-1.3-15.8-1.7-25.1-.8-10.3 19-22.9 38.1-36.5 55 12.3-2.1 41.2-8.4 51.5-22.9zm13.5-43c11.6-37 34.8-90.5 96.2-136.5 1.1-.8 2.2-1.7 3.3-2.5 2.8-2 5.6-4 8.6-6 .7-.4 1.3-.9 2-1.3 15.1-10.1 32.3-19.7 51.8-28.6-1.4.3-23.6 5.8-51.8 20.2-.7.3-1.3.7-2 1-2.8 1.5-5.7 3-8.6 4.7-1.1.6-2.2 1.3-3.3 1.9-29.7 17.5-63.2 44.6-85.6 85.5-9.5 17.4-18.4 32.9-26.6 46.5-2.3 3.9-4.6 7.7-6.8 11.3.6 0 1.1.1 1.6.1 8.1.6 15.1 1.9 21.2 3.7zm162 55.5c-17.3 9.2-34.6 18.3-52 27.5-.6.3-1.3.7-1.9 1-2.9 1.5-5.7 3-8.6 4.5-.5.3-1 .5-1.5.8l-35.1 18.6c-17.4 8.4-32.2 15-43.2 19.8-24.8 10.8-37.6 16.3-54.1 21.1-9.7 2.8-24.5 6.7-44.4 9.3-32.8 4.2-50.4.1-50.4.1l-81.9 71.8 210.7-87.9c28.7-12 56.9-24.8 84.6-38.7 4.6-2.3 9.2-4.6 13.8-7 .5-.3 1-.5 1.5-.8 2.9-1.4 5.7-2.9 8.6-4.4.6-.3 1.3-.7 1.9-1 18.9-9.9 37.6-20.3 56.1-31.1l-4.1-3.6z" fill="#eafe70"/><path d="M119.8 534.7v-138h-8.6v146.6h37v-8.6h-28.4zm413.6-134.3v134.3H172.7v8.6H542V400.4h-8.6zm0-240.2v154.5h8.6V160.2h-8.6zm-422.1-43.1v185.4h8.6V125.7h413.6v12.9h8.6v-21.5H111.3zm0 220.1v30h8.6v-30h-8.6z" fill="#777"/><path d="M169.3 73.5c-1.3 2.1-3.2 4.8-5.9 8-2.6 3.2-4.8 5.6-6.5 7.1-1.1 1-3.1 1.7-6 2.1-2.9.4-5.4.6-7.7.6-4 0-6.8-.3-8.3-.7-1.5-.5-2.3-1.6-2.3-3.5 0-.6.1-1.3.2-2.2s.4-1.9.6-3.1l11.3-49c.3-1.1.7-2.1 1.3-3.1.6-1 1.6-1.7 2.9-2.1 1.1-.3 2.4-.6 3.9-.9 1.5-.3 2.6-.4 3.4-.4l.8-3.4h-30.4l-.7 3.4c.9.1 2 .3 3.3.7 1.3.4 2.3.8 3 1.2.7.4 1.3.9 1.6 1.4.3.6.4 1.2.4 1.9 0 .3 0 .6-.1.9-.1.3-.1.6-.2.9l-12 52.1c-.2 1.2-.7 2.2-1.3 3.1-.6.9-1.5 1.6-2.8 2.1-.7.3-1.8.5-3.4.7-1.6.2-2.8.3-3.6.3l-.7 3.4h56.4l6.5-21.4h-3.7zM215 27.8c.9.7 1.7 1.6 2.4 2.6s1.3 2.5 2 4.3c1.3 3.8 2.6 7.8 3.9 12.2 1.3 4.3 2.5 8.5 3.7 12.6.4 1.4.8 2.8 1.1 4.1.3 1.3.5 2.4.5 3.2 0 .1 0 .4-.1.9l-.3 1.5-3.6 15.8c-.3 1.2-.7 2.3-1.4 3.2-.7.9-1.7 1.6-3 2.1-.9.3-2.3.6-4.2.8-1.9.2-3.3.3-4.3.3l-.7 3.4h33.7l.8-3.4c-1 0-2.4-.2-4.1-.6-1.7-.3-3-.7-3.8-1-.8-.4-1.4-.9-1.7-1.5-.3-.6-.4-1.3-.4-2.1v-.9c0-.3.1-.7.2-.9l3.2-14c.6-2.5 1.3-4.4 2-5.8.7-1.3 1.9-3.1 3.7-5.2 4-4.9 7.8-9.7 11.4-14.2 3.6-4.5 7.1-8.5 10.3-11.9 1.7-1.9 2.9-3 3.5-3.5.6-.4 1.6-1.1 3.1-1.9.7-.5 1.8-.9 3-1.3 1.3-.4 2.2-.6 2.9-.6l.8-3.4H254l-.8 3.4c2.5.1 4.6.4 6.2.9 1.7.5 2.5 1.3 2.5 2.5 0 .3-.1.7-.3 1.1-.2.4-.8 1.4-1.9 2.8-1.4 1.9-4 5.3-7.9 10.2-3.9 4.9-8.3 10.3-13.3 16.4-1.3-4.3-2.6-8.1-3.7-11.5-1.1-3.4-2-6.4-2.9-9.1-.9-3.1-1.6-5.5-2.1-7-.4-1.6-.7-2.7-.7-3.3 0-.6.4-1.1 1.1-1.5.8-.4 1.6-.7 2.6-.8 1-.1 2.1-.2 3.3-.3 1.2-.1 2.2-.1 3-.1l.8-3.4h-29.6l-.8 3.4c.9.1 1.9.2 3 .5.9.1 1.8.5 2.5 1zm92.1 61.3c2.4 2.5 5.3 4.3 8.6 5.6 3.3 1.3 6.8 1.9 10.5 1.9 6.8 0 12.7-1.5 18-4.5 5.2-3 10-8.1 14.3-15.4l-3.7-1.9c-2.6 4.9-6.1 8.9-10.2 11.8-4.2 3-8.8 4.4-13.8 4.4-5.9 0-10.7-2.3-14.2-6.8s-5.3-10.3-5.3-17.6c0-5.5.8-10.8 2.3-16.1 1.6-5.2 3.6-9.7 6.2-13.3 2.6-3.7 5.7-6.7 9.3-8.9 3.6-2.2 7.4-3.3 11.6-3.3 3.3 0 6 .6 8.1 1.8 2.1 1.2 3.8 2.7 5 4.7 1.2 2 2.1 4.3 2.5 6.8.4 2.5.7 5.2.7 8v2h4.2l5.5-25.7h-4.1l-2.8 3.5c-2.1-1.5-4.7-2.7-7.9-3.7s-6.9-1.5-11.2-1.5c-5.6 0-11 1.3-16.1 3.8-5.1 2.6-9.5 5.9-13.2 10.1-3.8 4.4-6.8 9.4-9 14.9s-3.2 11.5-3.2 18c0 4.5.7 8.5 2.1 12.1 1.3 3.7 3.3 6.8 5.8 9.3zm129.1-75.9c3.2-1.5 5.6-2.6 7.2-3.3 1.6-.7 2.8-1.6 3.8-2.5.9-.9 1.4-2.2 1.4-3.7 0-1.1-.4-1.9-1.2-2.6-.8-.7-1.8-1-3-1-.9 0-1.9.2-2.9.5-1 .4-2.1 1.2-3.4 2.5-2.2 2.1-4.2 4.1-6.2 6-2 1.8-4.7 4.3-8.2 7.4l1.4 2c4.1-2.1 7.8-3.8 11.1-5.3zM453 73.7h-3.7c-.9 1.6-2.6 4.1-5.2 7.5-2.6 3.4-4.8 5.9-6.8 7.5-1 .8-2.5 1.4-4.5 1.8-2 .4-5.9.6-11.6.6-4.6 0-7.5-.3-8.9-.9-1.3-.6-2-1.9-2-3.7 0-.6.1-1.3.2-2.2.1-1 .3-1.9.5-2.7l5.1-22.1h8.1c2.1 0 3.8.2 5.2.6 1.3.4 2.3 1.3 3 2.6.3.5.5 1.4.7 2.5.2 1.2.3 2.4.3 3.6 0 .6 0 1.2-.1 1.7 0 .5-.1 1-.1 1.3h3.8l6.5-28.1h-3.8c-.4 1.2-1.1 2.7-2 4.5-1 1.8-1.9 3.2-3 4.2-1.1 1.2-2.3 2-3.7 2.5-1.4.5-3.3.7-5.9.7H417l6.7-29h11.6c1.8 0 3.5 0 4.9.1 1.5.1 2.7.2 3.7.3 2.2.3 4 1.7 5.3 4.2 1.3 2.5 2.1 5.5 2.3 9h3.8l4-17.4h-55.8l-.8 3.4c.9.1 2 .3 3.5.6s2.6.7 3.5 1.2c.7.4 1.3.8 1.5 1.4.3.6.4 1.2.4 1.8 0 .3 0 .6-.1 1 0 .3-.1.7-.2.9l-12.1 52.3c-.2 1.2-.7 2.2-1.3 3.1-.6.9-1.5 1.5-2.7 2-.6.2-1.8.5-3.5.7-1.7.2-3.1.4-4.2.4l-.8 3.4h59.9l6.4-21.3zm78.2-47.1c1.8 0 3.5 0 4.9.1 1.4.1 2.7.2 3.7.3 2.2.3 3.9 1.7 5.3 4.2 1.3 2.5 2 5.5 2.3 9h3.8l4-17.4h-55.9l-.7 3.4c.8.1 2 .3 3.5.6s2.6.7 3.5 1.2c.7.4 1.3.8 1.6 1.4.3.6.4 1.2.4 1.8 0 .3 0 .6-.1 1 0 .3-.1.7-.2.9l-12.1 52.3c-.2 1.2-.7 2.2-1.3 3.1-.6.9-1.5 1.5-2.7 2-.6.2-1.8.5-3.5.7-1.7.2-3.1.4-4.2.4l-.7 3.4h59.9l6.2-21.3h-3.7c-.9 1.6-2.6 4.1-5.2 7.5-2.6 3.4-4.9 5.9-6.8 7.5-1 .8-2.5 1.4-4.5 1.8-2 .4-5.9.6-11.6.6-4.6 0-7.5-.3-8.9-.9-1.3-.6-2-1.9-2-3.7 0-.6.1-1.3.2-2.2.1-1 .3-1.9.5-2.7l5.1-22.1h8.1c2.1 0 3.9.2 5.2.6 1.3.4 2.3 1.3 3 2.6.3.5.5 1.4.7 2.5.2 1.2.3 2.4.3 3.6 0 .6 0 1.2-.1 1.7 0 .5-.1 1-.1 1.3h3.8l6.5-28.1h-3.8c-.4 1.2-1.1 2.7-2 4.5-.9 1.8-1.9 3.2-2.9 4.2-1.1 1.2-2.3 2-3.7 2.5-1.4.5-3.3.7-5.8.7H513l6.7-29h11.5zM290.8 605.3c-.4.1-1 .3-1.7.4-.7.1-1.3.1-1.7.1-1.2 0-2-.2-2.5-.6-.5-.4-.7-1.2-.7-2.4 0-.5.1-1.2.3-2 .2-.9.3-1.6.5-2.3l2.6-9.9c.3-.9.4-1.9.5-2.8.1-.9.2-1.6.2-2 0-1.9-.5-3.3-1.6-4.5-1.1-1.2-2.6-1.7-4.5-1.7-2.3 0-4.3.5-6 1.4-1.7 1-3.7 2.3-5.9 4.2h-.1c-.1-1.6-.8-2.9-1.9-4-1.2-1.1-2.6-1.6-4.5-1.6-2.2 0-4 .4-5.6 1.3-1.6.8-3.6 2.2-6 4.1h-.2c0-1.6-.4-2.8-1.1-3.7-.7-.9-1.9-1.4-3.5-1.4-.9 0-2 .2-3.2.5-1.2.4-2.7.9-4.3 1.6l-.5 2c.4-.1 1-.3 1.7-.4.7-.2 1.3-.3 1.8-.3 1.1 0 1.9.2 2.3.6.4.4.6 1.2.6 2.4 0 .6-.1 1.3-.2 2.1s-.3 1.6-.5 2.3l-4.6 20.1h5.8l5.3-22.7c1.9-2 3.5-3.4 4.9-3.9 1.4-.6 2.7-.9 3.9-.9 1.3 0 2.3.4 2.9 1.2.7.8 1 1.8 1 3.2 0 .3 0 .6-.1 1.1-.1.5-.2 1-.3 1.4l-4.9 20.7h5.8l5.4-22.9c1.6-1.8 3.1-3 4.5-3.6 1.3-.7 2.7-1 4-1 1.3 0 2.2.4 2.8 1.2.6.8.9 1.9.9 3.3 0 .4-.1 1-.2 1.7s-.3 1.5-.6 2.4l-3 11.6c-.2.7-.3 1.4-.4 1.9-.1.6-.1 1-.1 1.5 0 1.3.4 2.3 1.2 3.2.8.9 2.1 1.3 3.7 1.3.8 0 1.8-.1 2.9-.4 1.1-.3 2.7-.8 4.6-1.6l.3-2.2zm47.2.3c-.7.1-1.3.2-1.7.2-1.2 0-2-.2-2.5-.6-.5-.4-.7-1.2-.7-2.4 0-.4.1-1.1.3-2 .2-.9.3-1.7.5-2.3l4.7-20-.4-.5-5.7 1.4c-.8-.5-1.8-.9-3.1-1.3s-2.7-.6-4.2-.6c-2.3 0-4.6.6-6.7 1.7-2.2 1.1-4.1 2.6-5.7 4.4-1.7 1.9-3 4.1-3.9 6.5-.9 2.4-1.4 4.9-1.4 7.5 0 3.7.8 6.7 2.5 8.8 1.7 2.2 4.1 3.2 7 3.2 1.1 0 2.1-.2 3.1-.6.9-.4 1.8-.8 2.6-1.3.9-.5 1.6-1.1 2.2-1.6.6-.6 1.2-1 1.6-1.4h.2c.1 1.3.6 2.4 1.4 3.3.9.9 2 1.3 3.5 1.3 1.3 0 2.4-.2 3.3-.5.9-.3 2.3-.9 4.2-1.6l.5-2c-.3.2-.9.3-1.6.4zm-10.7-3.8c-1.6 1.6-3 2.8-4.3 3.4-1.3.6-2.5 1-3.6 1s-2.1-.2-2.8-.6c-.7-.4-1.3-1-1.7-1.8-.4-.8-.7-1.7-.8-2.7-.1-1-.2-2.1-.2-3.3 0-2.3.3-4.5 1-6.8.7-2.2 1.6-4.1 2.6-5.7 1.1-1.7 2.4-3 3.8-4s2.9-1.5 4.4-1.5c1.1 0 2 .2 2.7.5.7.3 1.3.7 1.7 1.2.4.6.7 1.1.9 1.7s.2 1.3.2 1.9l-3.9 16.7zm33.5-23.4c-1.2.4-2.6.9-4.2 1.7l-.5 2c.4-.1.9-.2 1.6-.4.7-.2 1.3-.3 1.7-.3 1.2 0 1.9.2 2.3.6.4.4.6 1.2.6 2.3 0 .6-.1 1.3-.2 2s-.3 1.5-.5 2.4l-2.4 9.8c-.3 1.3-.5 2.3-.6 3-.1.7-.1 1.3-.1 1.8 0 1.9.5 3.3 1.6 4.5 1.1 1.2 2.6 1.7 4.6 1.7 1.3 0 2.3-.1 3.2-.3.8-.2 1.7-.6 2.7-1.1.9-.4 1.7-1 2.6-1.6.9-.6 1.8-1.3 2.7-2.1h.2c0 1.3.4 2.4 1.2 3.4.8 1 2 1.4 3.7 1.4 1 0 2-.2 3.2-.5 1.2-.3 2.6-.9 4.3-1.6l.5-2c-.4.1-1 .3-1.7.4-.7.1-1.3.2-1.7.2-1.2 0-2-.2-2.5-.6-.5-.4-.7-1.2-.7-2.4 0-.4.1-1 .2-1.8.2-.9.4-1.7.6-2.6l4.6-19.9-.4-.4-5.4.4-5.4 23.3c-1.4 1.4-2.8 2.5-4.2 3.1-1.4.7-2.7 1-4.1 1-1.3 0-2.3-.4-2.9-1.2-.6-.8-.9-1.9-.9-3.3 0-.4.1-1 .2-1.7s.3-1.6.5-2.4l2.7-11.4c.1-.6.3-1.3.4-1.9.1-.6.1-1.2.1-1.5 0-1.4-.4-2.5-1.2-3.3-.8-.8-2-1.2-3.6-1.2-.6 0-1.6.2-2.8.5zm64.7 6.8c0 .7.3 1.3.8 1.9.6.6 1.4.8 2.5.8.8 0 1.5-.1 1.9-.4.4-.3.9-.7 1.2-1.3.3-.5.6-1 .7-1.7.2-.7.3-1.3.3-1.9 0-1.1-.1-1.9-.3-2.5-.2-.6-.6-1.1-1-1.5-.4-.4-1-.7-1.6-.8-.6-.2-1.3-.3-1.9-.3-1.4 0-2.7.4-4 1.3-1.3.9-3.1 2.3-5.6 4.5h-.2c0-1.8-.3-3.1-1-4-.7-.9-1.9-1.4-3.5-1.4-.9 0-1.9.2-3.2.5-1.2.4-2.7.9-4.3 1.6l-.5 2c.4-.1.9-.2 1.6-.4.7-.1 1.3-.2 1.7-.2 1.2 0 2 .2 2.3.6.4.4.6 1.2.6 2.3 0 .5-.1 1.2-.3 2.2-.2 1-.3 1.7-.4 2.2l-4.5 20.1h5.8l5-22.2c1.2-1.3 2.2-2.3 3.3-3.1 1-.8 1.9-1.4 2.7-1.8.8-.4 1.5-.6 2-.8.6-.1 1-.2 1.2-.2-.3.8-.6 1.6-1 2.4-.2.8-.3 1.5-.3 2.1zm31.2-19.1c0 1.1.4 2 1.2 2.9.8.8 1.7 1.3 2.7 1.3 1.1 0 2.1-.4 2.8-1.3.8-.9 1.2-1.9 1.2-3.1 0-1.1-.4-2-1.1-2.8-.7-.8-1.7-1.2-2.9-1.2-1 0-2 .4-2.7 1.3-.9.8-1.2 1.8-1.2 2.9zm5.6 39.3c-.4.1-1 .3-1.7.4-.7.1-1.3.1-1.7.1-1.2 0-2-.2-2.5-.7-.5-.4-.8-1.2-.8-2.4 0-.5.1-1.1.2-1.9.1-.8.3-1.6.5-2.4l3.3-13.2c.2-.6.3-1.3.4-1.9.1-.6.1-1.2.1-1.5 0-1.4-.4-2.5-1.2-3.3-.8-.8-2-1.2-3.7-1.2-.7 0-1.7.2-3 .5-1.3.4-2.7.9-4.3 1.6l-.5 2c.4-.1 1-.2 1.7-.4.7-.1 1.3-.2 1.8-.2 1.2 0 2 .2 2.3.6.4.4.6 1.2.6 2.3 0 .6-.1 1.3-.2 2.1s-.3 1.6-.5 2.3l-3.3 13.2c-.2.8-.3 1.4-.4 2-.1.5-.1 1-.1 1.5 0 1.3.4 2.3 1.2 3.2.8.9 2.1 1.3 3.7 1.3.8 0 1.8-.1 2.9-.4 1.1-.3 2.6-.8 4.5-1.6l.7-2zm41.8-4.1l-1.7-1.3c-1.4 2-2.9 3.5-4.5 4.5-1.6 1.1-3.3 1.6-5.4 1.6-2.2 0-4-.9-5.3-2.6-1.3-1.7-2-4.1-2-7 0-4.7 1-8.7 3-12 2-3.3 4.5-4.9 7.2-4.9.9 0 1.7.1 2.5.4.8.3 1.3.7 1.5 1.2-.3.7-.6 1.6-1.1 2.8-.4 1.2-.7 2-.7 2.7 0 .7.3 1.3.8 1.9.6.6 1.4.8 2.5.8 1.3 0 2.3-.6 3-1.6.7-1.1 1-2.3 1-3.7 0-1.9-.8-3.5-2.3-4.7-1.5-1.2-3.8-1.9-6.7-1.9-2.7 0-5.1.6-7.3 1.7-2.2 1.2-4 2.7-5.4 4.5-1.4 1.8-2.5 3.9-3.3 6.3-.8 2.4-1.2 4.8-1.2 7.4 0 3.9 1 6.9 3.1 9 2.1 2.1 4.9 3.2 8.6 3.2 2.7 0 5.2-.8 7.7-2.5 2.6-1.6 4.6-3.5 6-5.8zm34.7-8c2.6-.9 4.6-2.2 6-3.8 1.4-1.6 2.1-3.4 2.1-5.6 0-1.9-.7-3.4-2.2-4.6-1.4-1.2-3.6-1.8-6.6-1.8-2.7 0-5.1.6-7.4 1.8-2.2 1.2-4.1 2.7-5.6 4.6-1.6 2-2.8 4.1-3.6 6.5-.8 2.3-1.2 4.8-1.2 7.4 0 3.8 1 6.7 2.9 8.7 1.9 2 4.7 3.1 8.4 3.1 2.7 0 5.2-.7 7.7-2.3 2.5-1.5 4.5-3.5 6.2-6l-1.8-1.3c-1.5 2-3.1 3.6-4.6 4.6-1.6 1-3.4 1.6-5.5 1.6-2.3 0-4.1-.9-5.3-2.6-1.2-1.7-1.8-4.2-1.8-7.5 2.4-.3 4.5-.6 6.5-1.1 2-.4 3.9-.9 5.8-1.7zm-12.1.6c.6-4.1 1.9-7.4 4-10.1 2.1-2.7 4.4-4.1 6.8-4.1.4 0 .9 0 1.3.1s.8.2 1.2.5c.3.2.6.6.9 1 .2.5.3 1.1.3 1.9 0 1.9-.4 3.6-1.3 5-.8 1.4-2.1 2.5-3.8 3.4-1.2.6-2.7 1.1-4.5 1.5-1.8.4-3.4.6-4.9.8zm-388.2 62.6c.8 0 1.9.2 3.2.3 1.4.2 2.5.5 3.3.8.9.4 1.4 1 1.7 1.7.3.8.4 1.7.4 2.8V668.3c0 1.3-.1 2.6-.3 3.9-.7.7-2 1.4-3.8 2.1-1.8.7-3.8 1-5.9 1-2.9 0-5.5-.6-7.8-1.9-2.3-1.3-4.2-3-5.7-5.2-1.5-2.1-2.7-4.7-3.5-7.6-.8-2.9-1.2-6.1-1.2-9.4 0-3.8.4-7.2 1.2-10.2s2-5.6 3.5-7.6c1.5-2.1 3.3-3.7 5.4-4.8 2.1-1.1 4.4-1.6 7-1.6 2.4 0 4.5.4 6.2 1.4 1.7.9 3.2 2.1 4.4 3.7 1.2 1.6 2.2 3.3 2.9 5.2.8 1.9 1.4 3.9 1.9 5.9h3l-.3-18.3h-2.9l-1.5 2.5c-1.7-1-3.6-1.9-5.8-2.6-2.2-.7-4.8-1.1-7.7-1.1-3.7 0-7.1.7-10.4 2-3.2 1.4-6 3.3-8.3 5.7-2.4 2.5-4.3 5.5-5.6 8.8-1.3 3.4-2 7.1-2 11.1 0 4.1.7 7.8 2 11.2 1.4 3.3 3.2 6.2 5.6 8.5 2.3 2.3 5 4.1 8.1 5.4 3.1 1.2 6.3 1.9 9.6 1.9 3.1 0 6.3-.4 9.5-1.2 3.2-.8 6.5-1.9 9.7-3.4 0-.7-.1-1.5-.1-2.5v-10.1c0-.9.1-1.7.4-2.4.3-.7.8-1.2 1.6-1.6.6-.3 1.4-.5 2.4-.7 1-.1 1.8-.3 2.4-.3v-2.7h-22.9v3.1zm71.6 10.8c-1.2 2.4-2.4 4.2-3.5 5.4-.4.4-1.1.8-2.1 1-1 .3-1.9.4-2.9.5-.9.1-2 .1-3.3.1H195c-2 0-3.6-.1-4.7-.2s-2-.4-2.6-.9c-.6-.5-1.1-1.2-1.3-2.1-.2-.9-.3-2.1-.3-3.7v-15.6h5.9c1.6 0 2.9.1 3.9.4 1 .3 1.8.9 2.6 1.9.5.6.9 1.5 1.3 2.9.4 1.3.7 2.5.8 3.7h2.8v-20.5h-2.8c-.1 1-.4 2.2-.8 3.4-.4 1.2-.8 2.1-1.4 2.9-.7.8-1.4 1.4-2.3 1.8-.9.4-2.3.5-4.2.5H186v-20.7h8.2c1.3 0 2.6 0 3.6.1 1.1.1 2 .1 2.7.2 1.5.2 3 1.3 4.6 3.4 1.6 2.1 2.7 4.1 3.2 5.9h2.8v-12.6h-40.4v2.6c.7 0 1.6.2 2.7.4s2 .5 2.7.9c.9.4 1.4.9 1.7 1.5.3.6.4 1.3.4 2.2v37.5c0 .9-.2 1.6-.5 2.2-.3.6-.9 1.1-1.6 1.4-.4.2-1.2.3-2.4.5-1.2.1-2.2.3-2.9.3v2.6h43.3l1-15.4h-2.6c-.4 1.3-1.2 3.1-2.4 5.5zm48.3-39.5c.8 0 2 .3 3.6.7 1.6.4 2.7.9 3.4 1.4.7.5 1.3 1.6 1.7 3.2.4 1.6.6 4 .6 7V665l-29.4-39.8h-14.9v2.6c.9 0 2.2.4 3.7.9 1.5.6 2.7 1.3 3.6 2.1.7.6 1.2 1.5 1.6 2.6.4 1.1.6 2.3.6 3.4v25.7c0 3.4-.1 5.8-.5 7.2-.3 1.4-.9 2.5-1.8 3.1-.4.3-1.4.7-2.9 1.2-1.6.4-2.7.7-3.3.7v2.6h21.4v-2.6c-.6 0-1.7-.3-3.5-.7-1.8-.5-2.9-1-3.5-1.5-.8-.7-1.4-1.8-1.7-3.5-.4-1.6-.6-3.9-.6-7v-26.9l31.6 42.7h3.2v-38.2c0-2.7.2-4.9.5-6.6.3-1.7.9-2.9 1.8-3.5.6-.4 1.6-.8 3-1.1 1.4-.4 2.5-.6 3.2-.6v-2.6h-21.2v2.6zm70 39.5c-1.2 2.4-2.4 4.2-3.6 5.4-.4.4-1.1.8-2.1 1-1 .3-2 .4-2.9.5-.9.1-2 .1-3.3.1h-3.2c-2 0-3.6-.1-4.7-.2s-2-.4-2.6-.9c-.6-.5-1.1-1.2-1.3-2.1-.2-.9-.3-2.1-.3-3.7v-15.6h5.9c1.6 0 2.9.1 3.8.4 1 .3 1.8.9 2.6 1.9.5.6.9 1.5 1.3 2.9.4 1.3.7 2.5.8 3.7h2.8v-20.5h-2.8c-.1 1-.4 2.2-.7 3.4-.4 1.2-.9 2.1-1.4 2.9-.7.8-1.4 1.4-2.3 1.8-.9.4-2.3.5-4.1.5h-5.9v-20.7h8.2c1.3 0 2.5 0 3.6.1 1 .1 2 .1 2.7.2 1.5.2 3 1.3 4.6 3.4 1.6 2.1 2.7 4.1 3.2 5.9h2.8v-12.6h-40.4v2.6c.7 0 1.6.2 2.7.4s2 .5 2.7.9c.9.4 1.4.9 1.7 1.5.3.6.4 1.3.4 2.2v37.5c0 .9-.1 1.6-.5 2.2-.3.6-.9 1.1-1.6 1.4-.4.2-1.2.3-2.4.5-1.2.1-2.2.3-2.9.3v2.6h43.4l1-15.4H331c-.5 1.3-1.3 3.1-2.6 5.5zm44.8-39.5c.9.1 1.7.2 2.5.3.8.1 1.7.3 2.5.6s1.5.6 2 1 .7.9.7 1.4c0 .5-.1 1.2-.2 2.1-.1.9-.6 2.4-1.4 4.6-.8 2.3-2.5 6.6-4.9 12.7-2.4 6.2-4.6 11.6-6.4 16.1-3.8-10-6.7-17.8-8.7-23.2-2-5.4-3.5-9.4-4.4-11.7-.1-.2-.1-.5-.3-.9-.1-.4-.1-.7-.1-1 0-.7.6-1.2 1.9-1.4 1.3-.3 2.8-.4 4.7-.6v-2.6h-21.6v2.6c.7 0 1.4.2 2.2.4.8.2 1.6.5 2.2.9.8.5 1.4 1.1 1.9 1.6.5.6.9 1.3 1.2 2 1.2 3.1 3.4 9 6.7 17.8 3.3 8.8 6.7 18 10.2 27.5h3c3.5-9 6.9-17.6 10.1-25.8 3.3-8.3 5.8-14.3 7.4-18.2.5-1.1 1-2.1 1.5-2.9.5-.8 1.2-1.5 2-2 .6-.4 1.3-.7 2.2-.9.9-.3 1.7-.4 2.3-.4v-2.6H373v2.6zm69.3 3.5c-2.2-2.4-4.9-4.2-8-5.5-3.1-1.3-6.3-1.9-9.8-1.9-3.3 0-6.5.6-9.6 1.9-3 1.3-5.7 3.1-8 5.5s-4.2 5.3-5.5 8.6-2 7.1-2 11.4c0 3.9.6 7.5 1.9 10.9 1.3 3.4 3 6.3 5.2 8.7 2.2 2.4 4.9 4.3 7.9 5.7 3.1 1.4 6.4 2 10.1 2 3.4 0 6.6-.6 9.6-1.9 3-1.3 5.7-3.1 8-5.5 2.4-2.4 4.2-5.2 5.5-8.6 1.3-3.4 2-7.2 2-11.3s-.6-7.9-1.9-11.3c-1.3-3.4-3.1-6.3-5.4-8.7zm-2.5 29.5c-.6 2.8-1.6 5.4-3 7.6-1.3 2.2-3 3.9-5.2 5.2-2.1 1.2-4.5 1.8-7.1 1.8-2.8 0-5.2-.6-7.2-1.8-2-1.2-3.7-2.9-5-5.1-1.4-2.2-2.4-4.7-3-7.6-.6-2.9-1-6-1-9.6 0-3.2.3-6.2.9-9.1.6-2.9 1.5-5.4 2.8-7.6 1.3-2.3 3-4.1 5-5.4 2.1-1.3 4.6-2 7.5-2 2.6 0 5 .6 7 1.7 2 1.2 3.7 2.8 5.1 4.9 1.4 2.1 2.4 4.7 3.1 7.7.7 3 1.1 6.3 1.1 9.9 0 3.4-.3 6.5-1 9.4zm21.4-33c.7 0 1.6.2 2.8.5 1.1.3 2 .5 2.8.8 1 .4 1.6.9 1.9 1.4.3.6.4 1.3.4 2.2v37.8c0 1-.2 1.7-.6 2.3-.4.6-1 1-1.8 1.3-.5.2-1.4.3-2.6.4-1.3.1-2.2.2-2.9.2v2.6h23.5v-2.6c-.8 0-1.8-.1-3-.4-1.2-.2-2-.4-2.5-.6-.9-.4-1.5-.9-1.8-1.5-.3-.6-.5-1.3-.5-2.2v-37.8c0-.8.2-1.5.5-2.2.3-.7.9-1.2 1.9-1.4.8-.3 1.7-.4 2.8-.6 1.1-.1 2-.3 2.7-.3v-2.6h-23.5v2.7zm80.8 46.1c-.6-.4-1.4-1-2.4-2s-1.9-2-2.6-3.2c-2.2-3.2-4.5-6.6-7-10.2-2.4-3.6-4.6-6.7-6.5-9.5 2.3-3.2 4.3-5.9 6-8.1 1.6-2.2 3.5-4.6 5.4-7.1 1.1-1.3 1.9-2.4 2.5-3.1.6-.7 1.6-1.4 2.8-2 .7-.3 1.5-.5 2.5-.7 1-.1 1.8-.3 2.4-.3v-2.6h-19.5v2.6c2.2.1 3.7.3 4.6.7.9.4 1.4.9 1.4 1.7 0 .9-1 2.9-3 5.9-2 3-4.4 6.4-7.2 10.2-1.5-2.2-2.8-4.1-3.9-5.8-1-1.7-2-3.2-2.9-4.6-.8-1.3-1.6-2.6-2.2-3.8-.6-1.2-.9-2-.9-2.4 0-.6.8-1.1 2.3-1.4 1.5-.3 3-.5 4.4-.5v-2.6h-24.2v2.6c.6 0 1.4.1 2.5.3 1 .1 1.9.4 2.5.6 1 .5 1.8 1 2.4 1.7.6.6 1.4 1.7 2.5 3.3 2.5 3.7 4.9 7.1 7.1 10.3 2.2 3.2 4 5.8 5.5 7.9-1.9 2.7-4.1 5.6-6.5 8.8-2.5 3.2-4.5 5.9-6 8.1-.8 1.1-1.6 2-2.3 2.8-.8.8-1.8 1.5-3.1 2.2-.6.3-1.4.6-2.5.7-1 .1-1.8.2-2.4.3v2.6h19.5v-2.6c-2.5-.1-4.2-.3-4.9-.7-.7-.4-1.1-1-1.1-1.8 0-.7 1.4-3.1 4.1-7.1 2.8-4 5.2-7.4 7.4-10.3 1.3 1.9 2.7 4 4 6.1 1.3 2.1 2.5 4 3.5 5.5.9 1.4 1.6 2.7 2.2 3.9.6 1.2.9 1.9.9 2.3 0 .7-.6 1.2-1.9 1.5-1.3.3-2.9.5-4.9.6v2.6h24.4v-2.6c-.7 0-1.5-.1-2.5-.1-1-.1-1.8-.3-2.4-.7z"/></svg>